<svg xmlns="http://www.w3.org/2000/svg" width="1120" height="944" viewBox="0 0 1120 944" version="1.1"><path d="M 547.598 28.250 C 547.327 30.038, 546.845 41.554, 546.526 53.841 C 545.949 76.138, 543.873 105.697, 542.019 118 C 541.481 121.575, 541.031 125.737, 541.020 127.250 C 541 129.934, 541.139 130, 546.750 130 L 552.500 130 552.502 101.750 C 552.505 69.733, 553.484 54, 555.475 54 C 557.076 54, 583.891 85.700, 612.398 121.292 C 618.915 129.428, 624.753 135.917, 625.373 135.713 C 626.662 135.288, 627.692 121.208, 627.877 101.461 C 627.994 89.013, 629.920 62.234, 632.008 44.016 C 633.590 30.209, 633.864 31, 627.500 31 L 622 31 622.001 54.750 C 622.003 81.197, 620.347 105, 618.506 105 C 617.871 105, 611.994 98.587, 605.445 90.750 C 598.896 82.912, 590.829 73.325, 587.519 69.443 C 584.208 65.562, 574.582 53.975, 566.127 43.693 C 557.672 33.412, 550.155 25, 549.423 25 C 548.688 25, 547.870 26.457, 547.598 28.250 M 462.485 34.250 C 462.052 35.449, 459.184 47.439, 449.988 86.500 C 447.657 96.400, 444.510 109.225, 442.995 115 C 437.130 137.355, 435.787 143.121, 436.320 143.653 C 436.624 143.957, 439.153 143.892, 441.941 143.508 C 447.666 142.721, 447.146 143.747, 449.038 129.500 C 450.758 116.550, 453.819 102.730, 455.151 101.907 C 455.781 101.518, 459.492 100.698, 463.398 100.086 C 467.304 99.474, 474.100 98.313, 478.500 97.506 C 491.185 95.180, 489.484 93.995, 500.064 112.525 C 505.254 121.613, 509.976 129.757, 510.558 130.622 C 511.495 132.016, 512.520 132.049, 519.558 130.913 C 523.926 130.207, 527.615 129.561, 527.755 129.476 C 527.896 129.392, 525.641 125.762, 522.745 121.411 C 513.418 107.397, 497.672 82.348, 479.269 52.250 C 469.527 36.316, 467.107 33.001, 465.219 33 C 463.964 33, 462.734 33.563, 462.485 34.250 M 677.629 40.750 C 677.351 41.712, 676.377 45.650, 675.465 49.500 C 672.426 62.329, 657.951 112.342, 653.917 123.949 C 651.729 130.246, 650.163 135.983, 650.438 136.699 C 650.713 137.414, 651.798 138, 652.850 138 C 653.902 138, 662.540 140.495, 672.047 143.544 C 691.772 149.870, 702.023 151.652, 710.108 150.157 C 728.881 146.687, 742.734 133.957, 749.642 113.828 C 752.190 106.404, 752.500 104.143, 752.499 93 C 752.498 80.950, 752.382 80.263, 749.274 73.911 C 742.826 60.728, 730.767 53.137, 706.500 46.986 C 699.350 45.174, 690.384 42.635, 686.575 41.345 C 678.285 38.538, 678.269 38.537, 677.629 40.750 M 688.128 56.250 C 687.009 59.688, 683.814 70.600, 681.030 80.500 C 678.245 90.400, 674.632 103.225, 673.001 109 C 669.870 120.086, 667.040 131.734, 667.015 133.634 C 666.999 134.834, 673.855 137.863, 683 140.698 C 691.488 143.329, 706.199 143.057, 712.123 140.160 C 729.552 131.636, 742.819 100.437, 737.627 80.187 C 734.672 68.657, 727.644 61.296, 715.087 56.573 C 708.950 54.265, 693.427 50, 691.165 50 C 690.614 50, 689.247 52.813, 688.128 56.250 M 463.607 58.750 C 462.813 61.381, 456 92.207, 456 93.167 C 456 94.432, 458.380 94.229, 472.250 91.787 C 481.104 90.228, 485 89.133, 485 88.205 C 485 86.397, 483.968 84.539, 474.749 69.750 C 467.049 57.397, 464.711 55.089, 463.607 58.750 M 331.500 75.672 C 327.821 76.482, 323.585 78.302, 310.961 84.501 C 304.065 87.887, 296.977 91.161, 295.211 91.777 C 293.445 92.392, 292 93.494, 292 94.226 C 292 94.957, 294.665 100.943, 297.922 107.528 C 306.496 124.863, 323.417 161.721, 328.668 174.500 C 331.154 180.550, 333.583 185.915, 334.066 186.422 C 334.880 187.276, 348 181.681, 348 180.480 C 348 180.206, 346.005 176.273, 343.568 171.740 C 336.607 158.799, 327.817 138.920, 328.392 137.421 C 329.297 135.064, 333.919 134.592, 337.856 136.456 C 342.900 138.844, 368.932 153.361, 377.858 158.763 L 385.215 163.216 392.608 159.609 C 396.673 157.626, 400 155.832, 400 155.622 C 400 155.413, 390.212 150.053, 378.250 143.710 C 348.441 127.905, 348.018 127.661, 348.008 126.271 C 348.004 125.594, 349.930 123.262, 352.289 121.087 C 364.122 110.180, 365.174 92.444, 354.636 81.503 C 349.176 75.834, 340.593 73.671, 331.500 75.672 M 322.971 85.388 C 317.476 87.497, 309.211 91.850, 308.491 93.014 C 307.807 94.121, 314.905 111.774, 320.647 123.250 C 324.540 131.029, 325.440 131.331, 333.123 127.437 C 344.695 121.574, 350.711 112.753, 349.776 103.024 C 349.234 97.381, 345.104 89.884, 340.763 86.661 C 337.359 84.133, 327.987 83.463, 322.971 85.388 M 832.237 99.250 C 831.682 99.938, 829.095 104.775, 826.488 110 C 819.638 123.727, 798.854 161.600, 790.857 174.925 C 783.916 186.490, 783.235 188, 784.956 188 C 785.482 188, 788.202 189.350, 791 191 C 793.798 192.650, 796.507 194, 797.018 194 C 797.530 194, 802.443 185.113, 807.936 174.250 C 817.692 154.957, 834.744 123.732, 842.334 111.261 C 844.423 107.829, 845.845 104.558, 845.495 103.992 C 844.793 102.856, 835.604 98, 834.156 98 C 833.655 98, 832.791 98.563, 832.237 99.250 M 223.488 134.385 C 221.674 135.712, 221.667 136.001, 223.306 142.630 C 225.127 149.998, 236.368 197.372, 240.596 215.500 C 242.007 221.550, 243.969 230.906, 244.956 236.291 C 245.942 241.677, 247.003 246.337, 247.314 246.647 C 247.747 247.081, 257 241.214, 257 240.506 C 257 240.420, 255.859 237.009, 254.465 232.925 C 250.250 220.576, 246 205.359, 246 202.616 C 246 200.476, 248.023 198.533, 257.750 191.330 C 275.165 178.436, 273.713 178.975, 280.115 183.027 C 283.077 184.902, 290.587 189.937, 296.804 194.218 C 303.022 198.498, 308.434 202, 308.831 202 C 309.483 202, 319.349 194.930, 321.298 193.067 C 321.737 192.647, 317.912 189.905, 312.798 186.973 C 307.684 184.041, 297.200 177.721, 289.500 172.928 C 281.800 168.136, 265.375 157.954, 253 150.302 C 240.625 142.650, 229.345 135.629, 227.934 134.700 C 225.727 133.248, 225.104 133.203, 223.488 134.385 M 874 141.731 C 868.426 142.753, 857.199 148.935, 851.574 154.080 C 832.764 171.286, 826.382 195.864, 835.534 215.856 C 842.419 230.893, 859.807 245.110, 876.693 249.508 C 879.843 250.329, 882.774 251, 883.207 251 C 884.344 251, 892 243.933, 892 242.884 C 892 242.398, 888.890 242, 885.089 242 C 867.563 242, 851.820 231.559, 845.915 216.019 C 843.081 208.560, 843.314 196.284, 846.433 188.698 C 855.458 166.751, 873.574 151.154, 891.199 150.159 C 896.567 149.855, 899.478 150.269, 904.300 152.020 C 919.459 157.525, 928.483 168.206, 929.746 182.137 C 930.039 185.361, 930.490 188, 930.750 188 C 931.010 188, 933.454 186.132, 936.181 183.848 C 940.374 180.337, 941.044 179.310, 940.513 177.195 C 938.946 170.952, 926.472 156.990, 916.614 150.445 C 913.619 148.456, 907.418 145.523, 902.834 143.928 C 895.841 141.493, 893.052 141.047, 885.500 141.150 C 880.550 141.217, 875.375 141.479, 874 141.731 M 234.064 156.750 C 234.099 157.713, 236.023 165.921, 238.341 174.992 C 241.231 186.303, 243.018 191.572, 244.029 191.767 C 245.724 192.094, 266.372 177.482, 266.751 175.688 C 266.889 175.035, 264.639 172.948, 261.751 171.051 C 251.409 164.258, 235.978 155, 234.998 155 C 234.449 155, 234.029 155.787, 234.064 156.750 M 158.716 193.766 C 137.198 205.611, 122 227.903, 122 247.618 C 122 264.610, 132.571 282.538, 148.861 293.172 C 165.859 304.268, 185.138 305.121, 201.597 295.505 C 208.006 291.760, 217.148 283.018, 222.544 275.475 C 226.726 269.629, 235.018 253.681, 234.982 251.553 C 234.961 250.292, 206.528 222.972, 205.332 223.064 C 204.353 223.139, 197 231.796, 197 232.874 C 197 233.280, 202.850 238.893, 210 245.348 C 217.499 252.117, 223 257.844, 223 258.882 C 223 262.511, 216.591 273.360, 211.493 278.360 C 203.576 286.123, 196.372 289.390, 186.173 289.842 C 172.330 290.456, 161.270 285.394, 148.422 272.566 C 127.902 252.078, 126.806 229.636, 145.472 212.175 C 152.757 205.361, 159.726 202.230, 169.684 201.301 C 173.158 200.976, 175.989 200.438, 175.975 200.105 C 175.901 198.299, 168.719 190.002, 167.240 190.016 C 166.283 190.024, 162.447 191.712, 158.716 193.766 M 964.140 203.823 C 960.906 207.906, 917.408 250.094, 902.472 263.633 L 893.500 271.766 898.817 277.204 L 904.133 282.642 932.965 254.071 C 948.823 238.357, 965.412 222.350, 969.830 218.500 C 974.249 214.650, 977.894 211.131, 977.932 210.679 C 978.046 209.299, 969.771 200, 968.427 200 C 967.735 200, 965.805 201.720, 964.140 203.823 M 993.833 250.340 C 976.537 263.438, 948.912 282.694, 934.357 291.798 C 927.586 296.034, 922.041 299.950, 922.037 300.500 C 922.033 301.050, 923.531 303.275, 925.366 305.444 L 928.703 309.388 937.601 301.865 C 949.990 291.392, 986.873 264, 988.587 264 C 989.364 264, 990 264.757, 990 265.683 C 990 266.608, 987.735 278.195, 984.966 291.433 C 982.198 304.670, 979.686 316.850, 979.383 318.500 C 979.081 320.150, 976.375 332.646, 973.369 346.268 C 970.364 359.891, 968.197 371.509, 968.554 372.087 C 969.564 373.722, 971.020 372.823, 987.782 360.213 C 1015.697 339.212, 1029.455 329.285, 1042.106 321.017 C 1048.923 316.562, 1054.639 312.520, 1054.808 312.034 C 1055.242 310.792, 1050.723 304.027, 1049.451 304.012 C 1048.873 304.006, 1044.373 307.294, 1039.451 311.320 C 1025.809 322.477, 990.378 349, 989.116 349 C 988.502 349, 988 348.060, 988 346.910 C 988 343.513, 1004.573 261.999, 1007.639 250.313 C 1009.221 244.285, 1009.036 241, 1007.114 241 C 1006.593 241, 1000.616 245.203, 993.833 250.340 M 695.500 261.567 C 694.400 261.729, 688.775 262.342, 683 262.930 C 672.840 263.964, 653.378 266.106, 636.142 268.086 C 611.945 270.866, 559.442 278.491, 540.500 281.977 C 506.040 288.317, 483.260 293.150, 458.479 299.377 C 398.842 314.362, 331.596 339.883, 268.500 371.478 L 238.500 386.500 238.199 446.500 C 237.886 509.113, 238.424 521.678, 242.055 536.500 C 247.003 556.694, 256.765 573.382, 273.207 589.752 C 283.268 599.769, 289.278 604.216, 299.756 609.395 C 306.589 612.772, 309.076 613.736, 335 623.056 C 353.133 629.575, 389.361 644.137, 398.017 648.385 C 415.742 657.084, 427.401 671.370, 431.472 689.378 C 435.849 708.739, 433.233 724.512, 423.490 737.500 C 413.397 750.956, 398.361 758.266, 374.935 761.105 C 358.699 763.073, 342.659 759.825, 329.370 751.877 C 316.468 744.161, 303.116 727.704, 297.098 712.097 C 294.458 705.251, 293.228 699.984, 290.188 682.500 L 289.492 678.500 264.221 678.233 C 241.176 677.989, 238.893 678.116, 238.296 679.672 C 237.478 681.803, 239.552 700.887, 241.572 709.819 C 247.242 734.889, 258.936 756.699, 276.412 774.801 C 296.872 795.992, 314.616 804.588, 352.161 811.495 C 359.727 812.887, 390.574 820.121, 420.709 827.570 C 450.844 835.019, 484.500 843.311, 495.500 845.997 C 506.500 848.682, 530.350 854.536, 548.500 859.005 C 566.650 863.474, 595 870.450, 611.500 874.507 C 628 878.564, 662.425 887.047, 688 893.357 C 713.575 899.668, 738.550 905.803, 743.500 906.992 C 748.450 908.180, 781.493 916.327, 816.930 925.095 C 866.772 937.427, 881.551 940.749, 882.207 939.768 C 882.673 939.071, 882.817 937.206, 882.527 935.625 C 882.237 934.044, 881.991 860.694, 881.980 772.625 L 881.960 612.500 857.776 606.500 C 844.475 603.200, 832.784 600.356, 831.796 600.180 C 830.088 599.877, 830 602.226, 830 647.930 C 830 674.369, 829.835 696, 829.634 696 C 826.363 696, 726.040 670.460, 725.071 669.380 C 724.175 668.382, 711.962 632.257, 703.644 606 C 700.594 596.375, 694.252 576.467, 689.550 561.760 C 684.847 547.053, 681 534.060, 681 532.885 C 681 531.015, 681.404 530.827, 684.250 531.372 C 693.388 533.120, 794.592 558.140, 861.317 575.147 C 872.217 577.925, 881.410 579.923, 881.746 579.587 C 882.083 579.251, 882.245 570.128, 882.107 559.314 L 881.857 539.652 879.062 535.576 C 876.167 531.355, 859.275 504.980, 822.009 446.500 C 801.058 413.622, 762.185 352.881, 741.692 321 C 736.212 312.475, 725.877 296.275, 718.724 285 C 711.572 273.725, 705.038 263.712, 704.205 262.750 C 702.802 261.130, 700.549 260.823, 695.500 261.567 M 80.184 284.886 C 78.983 287.024, 78 289.043, 78 289.374 C 78 289.704, 81.263 291.612, 85.250 293.614 C 97.439 299.732, 123.512 314.922, 134.001 322.016 C 140.796 326.612, 147.638 333.917, 149.730 338.810 C 152.235 344.669, 151.731 353.620, 148.491 360.840 C 143.009 373.055, 131.862 379.453, 120.158 377.103 C 112.911 375.648, 106.679 372.388, 76.254 354.141 C 62.368 345.813, 50.599 339, 50.099 339 C 49.301 339, 43 349.176, 43 350.465 C 43 350.737, 44.751 351.853, 46.892 352.945 C 49.032 354.037, 61.519 361.315, 74.642 369.120 C 87.764 376.924, 101.875 384.927, 106 386.905 C 112.805 390.167, 114.287 390.499, 122 390.488 C 132.086 390.474, 136.311 388.657, 144.698 380.725 C 162.563 363.828, 163.609 338.012, 147.048 322.718 C 143.940 319.848, 138.496 315.736, 134.949 313.581 C 117.142 302.758, 106.415 296.047, 95.461 288.879 C 88.840 284.545, 83.186 281, 82.896 281 C 82.606 281, 81.385 282.749, 80.184 284.886 M 1033.998 363.869 C 1025.646 366.542, 1014.906 372.547, 1009.731 377.436 C 992.103 394.087, 989.335 417.927, 1002.032 443.738 C 1005.583 450.955, 1016.044 465.673, 1018.861 467.414 C 1019.410 467.753, 1025.403 465.720, 1032.180 462.896 C 1038.956 460.071, 1047.650 456.716, 1051.500 455.440 C 1055.923 453.974, 1058.395 452.638, 1058.215 451.810 C 1057.665 449.289, 1053.763 440, 1053.253 440 C 1052.971 440, 1045.421 442.963, 1036.478 446.584 C 1027.534 450.205, 1019.155 453.017, 1017.858 452.834 C 1014.537 452.364, 1007.528 441.549, 1004.868 432.791 C 1002.043 423.490, 1002.627 412.679, 1006.400 404.438 C 1010.018 396.534, 1019.456 387.529, 1029.526 382.373 C 1040.262 376.875, 1045.758 375.500, 1057 375.500 C 1065.605 375.500, 1067.134 375.800, 1073.225 378.686 C 1091.937 387.550, 1101.636 411.502, 1093.891 429.721 C 1092.805 432.274, 1092.479 434.178, 1093.066 434.540 C 1093.599 434.870, 1096.562 434.824, 1099.651 434.438 L 1105.267 433.736 1104.721 422.618 C 1103.806 403.986, 1096.996 388.248, 1084.406 375.666 C 1078.699 369.962, 1073.496 366.751, 1065.514 364.005 C 1057.863 361.372, 1042.010 361.304, 1033.998 363.869 M 24.660 392.955 C 20.115 397.986, 17.376 403.369, 15.361 411.235 C 10.151 431.572, 22.942 450.045, 42.188 449.978 C 52.556 449.942, 60.066 445.260, 69.573 432.905 C 77.542 422.549, 87.205 417.890, 96.229 420.055 C 112.220 423.891, 117.226 443.984, 105.248 456.256 C 101.727 459.863, 93.059 464, 89.022 464 C 85.350 464, 86.044 465.835, 90.750 468.570 C 93.362 470.089, 96.491 471.969, 97.703 472.750 C 99.758 474.073, 100.247 473.849, 104.989 469.414 C 108.470 466.157, 111.400 461.979, 114.286 456.155 C 118.356 447.943, 118.500 447.324, 118.492 438.076 C 118.485 430.107, 118.098 427.722, 116.185 423.864 C 112.518 416.468, 107.494 411.368, 100.463 407.907 C 94.641 405.041, 93.350 404.778, 87.255 405.215 C 76.772 405.968, 71.863 409.128, 60.010 422.755 C 51.237 432.842, 46.227 436, 39 436 C 28.390 436, 20.966 428.456, 21.022 417.730 C 21.076 407.367, 29.919 398, 39.649 398 C 40.942 398, 42 397.614, 42 397.142 C 42 395.983, 31.392 389, 29.632 389 C 28.862 389, 26.625 390.780, 24.660 392.955 M 343.500 451.098 C 323.420 453.956, 307.037 464.850, 298.610 480.948 C 293.304 491.083, 291.669 497.968, 291.713 510 C 291.775 526.894, 297.109 540.523, 308.454 552.777 C 317.332 562.366, 323.636 565.090, 373.500 580.877 C 411.604 592.941, 413.644 593.512, 441.500 599.918 C 488.689 610.769, 510.225 615.822, 533.245 621.445 C 545.755 624.500, 556.797 627, 557.782 627 C 559.156 627, 560.473 624.489, 563.419 616.250 C 565.533 610.337, 568.987 600.775, 571.094 595 C 597.779 521.859, 601.283 511.949, 600.674 511.341 C 600.397 511.064, 577.070 505.066, 548.836 498.011 C 520.601 490.956, 488.275 482.720, 477 479.709 C 465.725 476.698, 442.325 470.537, 425 466.018 C 407.675 461.498, 389.675 456.708, 385 455.374 C 367.579 450.402, 356.447 449.255, 343.500 451.098 M 629.807 578.724 C 626.682 587.401, 620.497 604.567, 616.063 616.871 C 611.628 629.175, 608 639.806, 608 640.496 C 608 641.186, 609.237 642.020, 610.750 642.350 C 612.263 642.681, 623.175 645.241, 635 648.039 C 646.825 650.838, 658.478 653.390, 660.895 653.710 C 666.237 654.418, 666.562 656.929, 657.505 627.500 C 651.478 607.916, 648.718 598.681, 640.619 571.007 C 639.305 566.517, 637.838 563.400, 636.957 563.230 C 635.894 563.025, 633.921 567.300, 629.807 578.724 M 479.408 664.250 C 484.137 680.837, 485.991 692.592, 485.995 706 C 486.001 733.239, 476.951 756.088, 458.176 776.227 C 455.752 778.827, 453.992 781.538, 454.266 782.251 C 454.542 782.970, 462.271 785.480, 471.632 787.890 C 480.909 790.279, 491.289 792.955, 494.698 793.836 C 498.107 794.717, 501.094 795.226, 501.337 794.969 C 501.686 794.597, 520.083 740.536, 537.773 687.898 C 539.178 683.717, 540.059 679.597, 539.731 678.742 C 539.403 677.888, 537.642 676.873, 535.818 676.487 C 533.993 676.102, 521.025 672.684, 507 668.894 C 492.975 665.103, 480.885 662.001, 480.133 662 C 479.193 662, 478.967 662.701, 479.408 664.250 M 578.010 733.250 C 570.195 757.038, 561.483 783.375, 558.650 791.777 C 554.240 804.859, 553.715 807.189, 555 807.997 C 555.825 808.515, 561.225 810.058, 567 811.425 C 572.775 812.792, 598.425 818.895, 624 824.986 C 714.478 846.535, 720.749 848, 722.491 848 C 725.243 848, 725.396 848.602, 711.163 803.500 C 703.731 779.950, 695.178 752.606, 689.892 735.500 C 683.756 715.644, 682.758 712.532, 682.392 712.111 C 681.635 711.238, 596.966 690, 594.245 690 C 592.463 690, 590.521 695.173, 578.010 733.250 M 744 730.381 C 744 731.141, 746.514 739.578, 749.586 749.131 C 758.057 775.469, 763.157 792.093, 771.018 819 C 774.955 832.475, 779.627 848.220, 781.401 853.990 L 784.625 864.480 791.563 866.251 C 795.378 867.225, 805.194 869.835, 813.376 872.051 C 821.559 874.267, 828.359 875.950, 828.488 875.790 C 828.617 875.631, 829.015 846.831, 829.372 811.791 L 830.021 748.083 826.261 747.133 C 824.192 746.610, 811.475 743.668, 798 740.595 C 784.525 737.522, 767.875 733.662, 761 732.016 C 746.993 728.663, 744 728.375, 744 730.381" stroke="none" fill="#f6869c" fill-rule="evenodd"/><path d="M 1 472 L 1 943 560 943 L 1119 943 1119 472 L 1119 1 560 1 L 1 1 1 472 M 547.598 28.250 C 547.327 30.038, 546.845 41.554, 546.526 53.841 C 545.949 76.138, 543.873 105.697, 542.019 118 C 541.481 121.575, 541.031 125.737, 541.020 127.250 C 541 129.933, 541.139 130, 546.750 130 L 552.500 130 552.500 102.250 C 552.500 73.788, 553.560 53, 555.011 53 C 556.283 53, 586.937 89.524, 613.970 123.250 C 619.150 129.713, 624.131 135, 625.039 135 C 626.461 135, 626.781 133.106, 627.345 121.342 C 627.705 113.830, 628 103.350, 628 98.053 C 628 88.681, 630.038 61.205, 632.008 44.016 C 633.590 30.209, 633.864 31, 627.500 31 L 622 31 622.013 54.250 C 622.027 77.143, 620.306 106, 618.928 106 C 618.540 106, 612.667 99.362, 605.876 91.250 C 599.085 83.138, 590.823 73.325, 587.515 69.443 C 584.207 65.562, 574.582 53.975, 566.127 43.693 C 557.672 33.412, 550.155 25, 549.423 25 C 548.688 25, 547.870 26.457, 547.598 28.250 M 462.485 34.250 C 462.052 35.449, 459.184 47.439, 449.988 86.500 C 447.657 96.400, 444.510 109.225, 442.995 115 C 437.130 137.355, 435.787 143.121, 436.320 143.653 C 436.624 143.957, 439.153 143.892, 441.941 143.508 C 447.666 142.721, 447.146 143.747, 449.038 129.500 C 450.758 116.550, 453.819 102.730, 455.151 101.907 C 455.781 101.518, 459.492 100.698, 463.398 100.086 C 467.304 99.474, 474.100 98.313, 478.500 97.506 C 491.185 95.180, 489.484 93.995, 500.064 112.525 C 505.254 121.613, 509.976 129.757, 510.558 130.622 C 511.496 132.017, 512.490 132.048, 519.343 130.897 C 523.696 130.165, 526.945 129.140, 526.785 128.549 C 526.628 127.972, 522.675 121.525, 518 114.223 C 505.382 94.512, 492.466 73.849, 479.265 52.250 C 469.526 36.315, 467.107 33.001, 465.219 33 C 463.964 33, 462.734 33.563, 462.485 34.250 M 677.629 40.750 C 677.351 41.712, 676.377 45.650, 675.465 49.500 C 672.426 62.329, 657.951 112.342, 653.917 123.949 C 651.729 130.246, 650.163 135.983, 650.438 136.699 C 650.713 137.414, 651.798 138, 652.850 138 C 653.902 138, 662.540 140.495, 672.047 143.544 C 691.772 149.870, 702.023 151.652, 710.108 150.157 C 728.881 146.687, 742.734 133.957, 749.642 113.828 C 752.190 106.404, 752.500 104.143, 752.499 93 C 752.498 80.950, 752.382 80.263, 749.274 73.911 C 742.826 60.728, 730.767 53.137, 706.500 46.986 C 699.350 45.174, 690.384 42.635, 686.575 41.345 C 678.285 38.538, 678.269 38.537, 677.629 40.750 M 688.128 56.250 C 687.009 59.688, 683.814 70.600, 681.030 80.500 C 678.245 90.400, 674.632 103.225, 673.001 109 C 669.870 120.086, 667.040 131.734, 667.015 133.634 C 666.999 134.834, 673.855 137.863, 683 140.698 C 691.488 143.329, 706.199 143.057, 712.123 140.160 C 729.552 131.636, 742.819 100.437, 737.627 80.187 C 734.672 68.657, 727.644 61.296, 715.087 56.573 C 708.950 54.265, 693.427 50, 691.165 50 C 690.614 50, 689.247 52.813, 688.128 56.250 M 464 56.358 C 464 56.554, 462.200 64.718, 460 74.500 C 457.800 84.282, 456 92.671, 456 93.142 C 456 93.614, 456.939 94, 458.087 94 C 461.221 94, 484.387 89.765, 485.251 89.034 C 486.499 87.977, 466.903 56, 465.007 56 C 464.453 56, 464 56.161, 464 56.358 M 331.500 75.672 C 327.821 76.482, 323.585 78.302, 310.961 84.501 C 304.065 87.887, 296.977 91.161, 295.211 91.777 C 293.445 92.392, 292 93.494, 292 94.226 C 292 94.957, 294.665 100.943, 297.922 107.528 C 306.496 124.863, 323.417 161.721, 328.668 174.500 C 331.154 180.550, 333.576 185.907, 334.049 186.405 C 335.191 187.605, 347 181.981, 347 180.237 C 347 179.504, 343.246 171.164, 338.657 161.702 C 327.224 138.130, 327.199 138.059, 329.514 136.366 C 333.204 133.668, 333.950 133.951, 357 146.794 C 364.425 150.931, 373.801 156.313, 377.837 158.753 L 385.173 163.190 392.087 159.888 C 395.889 158.072, 399 156.098, 399 155.502 C 399 154.905, 396.413 153.154, 393.250 151.611 C 384.876 147.524, 348.658 127.960, 347.593 126.948 C 347.066 126.447, 348.744 124.238, 351.606 121.665 C 364.102 110.430, 365.438 92.718, 354.636 81.503 C 349.176 75.834, 340.593 73.671, 331.500 75.672 M 322.971 85.388 C 317.476 87.497, 309.211 91.850, 308.491 93.014 C 307.637 94.396, 321.860 127.884, 324.568 130.867 C 324.751 131.069, 327.817 129.870, 331.380 128.203 C 344.260 122.176, 350.762 113.277, 349.776 103.024 C 349.234 97.381, 345.104 89.884, 340.763 86.661 C 337.359 84.133, 327.987 83.463, 322.971 85.388 M 832.237 99.250 C 831.682 99.938, 829.095 104.775, 826.488 110 C 819.638 123.727, 798.854 161.600, 790.857 174.925 C 783.916 186.490, 783.235 188, 784.956 188 C 785.482 188, 788.202 189.350, 791 191 C 793.798 192.650, 796.507 194, 797.018 194 C 797.530 194, 802.442 185.113, 807.933 174.250 C 817.467 155.390, 836.664 120.241, 842.329 111.270 C 846.222 105.105, 845.874 103.476, 840.033 100.517 C 834.361 97.643, 833.629 97.524, 832.237 99.250 M 222.388 135.432 C 222.086 136.219, 223.870 145.106, 226.354 155.182 C 228.837 165.257, 232.728 181.600, 234.999 191.500 C 237.270 201.400, 240.188 214, 241.482 219.500 C 242.776 225, 244.419 233.039, 245.132 237.364 C 245.875 241.873, 246.985 245.441, 247.735 245.728 C 249.680 246.475, 255.985 241.792, 255.993 239.595 C 255.997 238.547, 254.456 232.913, 252.568 227.074 C 247.126 210.239, 245.087 201.664, 246.200 200.289 C 247.555 198.614, 271.433 181.155, 273.400 180.400 C 275.155 179.727, 279.388 182.227, 296.884 194.273 C 303.146 198.584, 308.797 201.908, 309.443 201.660 C 311.845 200.739, 320.997 193.464, 320.967 192.500 C 320.950 191.950, 317.463 189.539, 313.218 187.143 C 305.476 182.772, 290.770 173.769, 249.116 147.901 C 236.805 140.255, 225.878 134, 224.835 134 C 223.791 134, 222.690 134.644, 222.388 135.432 M 874 141.731 C 868.426 142.753, 857.199 148.935, 851.574 154.080 C 832.764 171.286, 826.382 195.864, 835.534 215.856 C 842.419 230.893, 859.807 245.110, 876.693 249.508 C 884.010 251.414, 883.346 251.513, 887.465 247.896 C 892.791 243.220, 892.196 242, 884.589 242 C 867.590 242, 851.742 231.353, 845.915 216.019 C 843.081 208.560, 843.314 196.284, 846.433 188.698 C 855.458 166.751, 873.574 151.154, 891.199 150.159 C 910.083 149.092, 927.864 163.593, 929.720 181.575 C 930.028 184.559, 930.733 187, 931.287 187 C 931.841 187, 934.287 185.367, 936.723 183.371 C 940.449 180.318, 941.051 179.341, 940.518 177.217 C 938.946 170.953, 926.489 157.001, 916.614 150.445 C 913.619 148.456, 907.418 145.523, 902.834 143.928 C 895.841 141.493, 893.052 141.047, 885.500 141.150 C 880.550 141.217, 875.375 141.479, 874 141.731 M 234.064 156.750 C 234.099 157.713, 236.023 165.921, 238.341 174.992 C 241.231 186.303, 243.018 191.572, 244.029 191.767 C 245.200 191.993, 263.991 179.335, 267.282 176.104 C 268.102 175.299, 259.586 169.345, 244.737 160.340 C 235.135 154.518, 233.968 154.126, 234.064 156.750 M 158.716 193.766 C 137.198 205.611, 122 227.903, 122 247.618 C 122 264.610, 132.571 282.538, 148.861 293.172 C 165.859 304.268, 185.138 305.121, 201.597 295.505 C 208.006 291.760, 217.148 283.018, 222.544 275.475 C 226.726 269.629, 235.018 253.681, 234.982 251.553 C 234.965 250.497, 206.665 223, 205.596 223 C 204.185 223, 198.051 230.708, 198.027 232.512 C 198.009 233.838, 202.266 238.373, 210.500 245.802 C 217.698 252.295, 223 257.843, 223 258.880 C 223 262.511, 216.592 273.359, 211.493 278.360 C 203.576 286.123, 196.372 289.390, 186.173 289.842 C 172.330 290.456, 161.270 285.394, 148.422 272.566 C 127.902 252.078, 126.806 229.636, 145.472 212.175 C 152.620 205.489, 159.492 202.336, 169.109 201.331 C 172.705 200.955, 175 200.245, 175 199.508 C 175 197.316, 169.022 190, 167.244 190.016 C 166.285 190.024, 162.447 191.712, 158.716 193.766 M 944.500 223.293 C 931.850 235.919, 915.538 251.644, 908.250 258.239 C 900.962 264.833, 895 270.911, 895 271.744 C 895 273.201, 902.807 282, 904.100 282 C 904.446 282, 917.572 269.288, 933.270 253.750 C 948.967 238.213, 965.422 222.350, 969.837 218.500 C 974.252 214.650, 977.894 211.131, 977.932 210.679 C 978.046 209.308, 969.765 199.988, 968.593 200.169 C 967.992 200.262, 957.150 210.668, 944.500 223.293 M 993 250.884 C 977.348 262.882, 949.292 282.457, 934.357 291.798 C 927.586 296.034, 922.035 299.868, 922.022 300.317 C 921.978 301.932, 927.270 308, 928.722 308 C 929.539 308, 933.840 304.962, 938.281 301.250 C 950.230 291.260, 988.294 263.015, 989.817 263.007 C 990.603 263.003, 990.927 263.707, 990.620 264.750 C 990.080 266.587, 980.976 310.172, 978.975 320.500 C 978.335 323.800, 975.605 336.394, 972.906 348.486 C 970.208 360.579, 968 370.816, 968 371.236 C 968 373.911, 974.077 370.523, 987.807 360.194 C 1015.699 339.210, 1029.459 329.283, 1042.106 321.017 C 1048.923 316.562, 1054.639 312.520, 1054.808 312.034 C 1055.242 310.792, 1050.723 304.027, 1049.451 304.012 C 1048.873 304.006, 1044.373 307.291, 1039.451 311.314 C 1029.498 319.447, 989.247 350, 988.485 350 C 987.236 350, 988.530 342.214, 995.442 308.164 C 1004.522 263.433, 1006.621 253.513, 1007.961 249.007 C 1010.849 239.293, 1007.585 239.703, 993 250.884 M 695.500 261.567 C 694.400 261.729, 688.775 262.342, 683 262.930 C 672.840 263.964, 653.378 266.106, 636.142 268.086 C 611.945 270.866, 559.442 278.491, 540.500 281.977 C 506.040 288.317, 483.260 293.150, 458.479 299.377 C 398.842 314.362, 331.596 339.883, 268.500 371.478 L 238.500 386.500 238.199 446.500 C 237.886 509.113, 238.424 521.678, 242.055 536.500 C 247.003 556.694, 256.765 573.382, 273.207 589.752 C 283.268 599.769, 289.278 604.216, 299.756 609.395 C 306.589 612.772, 309.076 613.736, 335 623.056 C 353.133 629.575, 389.361 644.137, 398.017 648.385 C 415.742 657.084, 427.401 671.370, 431.472 689.378 C 435.849 708.739, 433.233 724.512, 423.490 737.500 C 413.397 750.956, 398.361 758.266, 374.935 761.105 C 358.699 763.073, 342.659 759.825, 329.370 751.877 C 316.468 744.161, 303.116 727.704, 297.098 712.097 C 294.458 705.251, 293.228 699.984, 290.188 682.500 L 289.492 678.500 264.221 678.233 C 241.176 677.989, 238.893 678.116, 238.296 679.672 C 237.478 681.803, 239.552 700.887, 241.572 709.819 C 247.242 734.889, 258.936 756.699, 276.412 774.801 C 296.872 795.992, 314.616 804.588, 352.161 811.495 C 359.727 812.887, 390.574 820.121, 420.709 827.570 C 450.844 835.019, 484.500 843.311, 495.500 845.997 C 506.500 848.682, 530.350 854.536, 548.500 859.005 C 566.650 863.474, 595 870.450, 611.500 874.507 C 628 878.564, 662.425 887.047, 688 893.357 C 713.575 899.668, 738.550 905.803, 743.500 906.992 C 748.450 908.180, 781.493 916.327, 816.930 925.095 C 866.772 937.427, 881.551 940.749, 882.207 939.768 C 882.673 939.071, 882.817 937.206, 882.527 935.625 C 882.237 934.044, 881.991 860.694, 881.980 772.625 L 881.960 612.500 857.776 606.500 C 844.475 603.200, 832.784 600.356, 831.796 600.180 C 830.088 599.877, 830 602.226, 830 647.930 C 830 674.369, 829.835 696, 829.634 696 C 826.363 696, 726.040 670.460, 725.071 669.380 C 724.175 668.382, 711.962 632.257, 703.644 606 C 700.594 596.375, 694.252 576.467, 689.550 561.760 C 684.847 547.053, 681 534.066, 681 532.899 C 681 530.989, 681.374 530.848, 684.750 531.481 C 692.050 532.849, 790.051 557.011, 847 571.482 C 865.425 576.164, 880.837 579.996, 881.250 579.997 C 881.663 579.999, 882 570.969, 882 559.930 L 882 539.860 879.134 535.680 C 876.173 531.362, 859.491 505.319, 822.009 446.500 C 801.058 413.622, 762.185 352.881, 741.692 321 C 736.212 312.475, 725.877 296.275, 718.724 285 C 711.572 273.725, 705.038 263.712, 704.205 262.750 C 702.802 261.130, 700.549 260.823, 695.500 261.567 M 80.557 284.223 C 77.761 288.213, 78.566 290.394, 83.750 292.874 C 93.774 297.670, 123.776 315.061, 134.001 322.002 C 140.807 326.622, 147.642 333.926, 149.730 338.810 C 152.235 344.669, 151.731 353.620, 148.491 360.840 C 143.009 373.055, 131.862 379.453, 120.158 377.103 C 112.911 375.648, 106.679 372.388, 76.254 354.141 C 62.368 345.813, 50.594 339, 50.089 339 C 48.874 339, 44 347.777, 44 349.965 C 44 350.908, 45.238 352.243, 46.750 352.932 C 48.263 353.621, 60.779 360.877, 74.564 369.057 C 108.794 389.370, 111.301 390.503, 122 390.488 C 132.086 390.474, 136.311 388.657, 144.698 380.725 C 162.556 363.835, 163.607 338.034, 147.061 322.718 C 143.961 319.848, 135.591 313.934, 128.462 309.575 C 121.333 305.216, 112.575 299.859, 109 297.672 C 105.425 295.484, 98.580 291.063, 93.788 287.847 C 88.997 284.631, 84.410 282, 83.595 282 C 82.780 282, 81.413 283, 80.557 284.223 M 1033.998 363.869 C 1025.646 366.542, 1014.906 372.547, 1009.731 377.436 C 992.103 394.087, 989.335 417.927, 1002.032 443.738 C 1007.245 454.333, 1017.173 467.001, 1020.262 466.997 C 1021.493 466.996, 1028.467 464.518, 1035.761 461.491 C 1043.054 458.463, 1051.042 455.446, 1053.511 454.786 C 1056.544 453.975, 1058 453.047, 1058 451.926 C 1058 449.854, 1053.954 439.992, 1053.117 440.023 C 1052.778 440.036, 1044.859 443.146, 1035.521 446.936 C 1022.408 452.256, 1018.123 453.601, 1016.703 452.841 C 1013.646 451.205, 1007.064 440.022, 1004.831 432.669 C 1002.045 423.496, 1002.648 412.632, 1006.400 404.438 C 1010.018 396.534, 1019.456 387.529, 1029.526 382.373 C 1040.262 376.875, 1045.758 375.500, 1057 375.500 C 1065.605 375.500, 1067.134 375.800, 1073.225 378.686 C 1085.295 384.403, 1094.067 396.478, 1096.030 410.075 C 1097.060 417.212, 1096.700 421.006, 1094.258 428.720 C 1093.350 431.591, 1092.882 434.215, 1093.219 434.552 C 1093.556 434.889, 1096.405 434.843, 1099.549 434.451 L 1105.267 433.736 1104.721 422.618 C 1103.806 403.986, 1096.996 388.248, 1084.406 375.666 C 1078.699 369.962, 1073.496 366.751, 1065.514 364.005 C 1057.863 361.372, 1042.010 361.304, 1033.998 363.869 M 24.660 392.955 C 20.115 397.986, 17.376 403.369, 15.361 411.235 C 10.151 431.572, 22.942 450.045, 42.188 449.978 C 52.556 449.942, 60.066 445.260, 69.573 432.905 C 77.542 422.549, 87.205 417.890, 96.229 420.055 C 112.220 423.891, 117.226 443.984, 105.248 456.256 C 101.705 459.886, 93.053 464, 88.962 464 C 87.883 464, 87.009 464.563, 87.020 465.250 C 87.044 466.765, 97.441 473, 99.943 473 C 102.898 473, 110.879 463.460, 114.809 455.230 C 118.265 447.991, 118.499 446.896, 118.492 438 C 118.486 430.110, 118.095 427.714, 116.185 423.864 C 112.518 416.468, 107.494 411.368, 100.463 407.907 C 94.641 405.041, 93.350 404.778, 87.255 405.215 C 76.772 405.968, 71.863 409.128, 60.010 422.755 C 51.237 432.842, 46.227 436, 39 436 C 34.375 436, 32.508 435.447, 28.768 432.970 C 15.520 424.195, 19.981 402.520, 35.808 398.760 C 38.664 398.082, 40.992 397.071, 40.982 396.513 C 40.960 395.246, 31.520 389, 29.628 389 C 28.861 389, 26.625 390.780, 24.660 392.955 M 343.500 451.098 C 323.420 453.956, 307.037 464.850, 298.610 480.948 C 293.304 491.083, 291.669 497.968, 291.713 510 C 291.775 526.894, 297.109 540.523, 308.454 552.777 C 317.332 562.366, 323.636 565.090, 373.500 580.877 C 411.604 592.941, 413.644 593.512, 441.500 599.918 C 488.689 610.769, 510.225 615.822, 533.245 621.445 C 545.755 624.500, 556.797 627, 557.782 627 C 559.156 627, 560.473 624.489, 563.419 616.250 C 565.533 610.337, 568.987 600.775, 571.094 595 C 597.779 521.859, 601.283 511.949, 600.674 511.341 C 600.397 511.064, 577.070 505.066, 548.836 498.011 C 520.601 490.956, 488.275 482.720, 477 479.709 C 465.725 476.698, 442.325 470.537, 425 466.018 C 407.675 461.498, 389.675 456.708, 385 455.374 C 367.579 450.402, 356.447 449.255, 343.500 451.098 M 629.991 578.250 C 611.801 628.591, 608 639.352, 608 640.504 C 608 641.199, 609.013 641.981, 610.250 642.242 C 613.386 642.905, 646.730 650.676, 656.862 653.104 C 661.461 654.207, 665.394 654.940, 665.601 654.732 C 665.808 654.525, 664.661 650.338, 663.052 645.428 C 659.979 636.051, 644.461 584.519, 638.908 565.250 C 638.235 562.913, 637.355 561, 636.954 561 C 636.553 561, 633.420 568.763, 629.991 578.250 M 479.408 664.250 C 484.137 680.837, 485.991 692.592, 485.995 706 C 486.002 733.541, 476.865 756.343, 457.642 776.761 C 454.918 779.655, 452.961 782.295, 453.294 782.628 C 453.628 782.961, 461.235 785.152, 470.200 787.497 C 497.049 794.520, 500.893 795.442, 501.345 794.960 C 501.688 794.595, 520.221 740.124, 537.773 687.898 C 539.178 683.717, 540.059 679.597, 539.731 678.742 C 539.403 677.888, 537.642 676.873, 535.818 676.487 C 533.993 676.102, 521.025 672.684, 507 668.894 C 492.975 665.103, 480.885 662.001, 480.133 662 C 479.193 662, 478.967 662.701, 479.408 664.250 M 578.010 733.250 C 570.195 757.038, 561.483 783.375, 558.650 791.777 C 554.240 804.859, 553.715 807.189, 555 807.997 C 555.825 808.515, 561.225 810.058, 567 811.425 C 572.775 812.792, 598.425 818.895, 624 824.986 C 649.575 831.077, 676.125 837.393, 683 839.022 C 727.799 849.637, 725.542 849.270, 724.414 845.750 C 724.018 844.513, 722.223 838.775, 720.426 833 C 718.629 827.225, 714.461 813.950, 711.163 803.500 C 703.731 779.950, 695.178 752.606, 689.892 735.500 C 683.756 715.644, 682.758 712.532, 682.392 712.111 C 681.635 711.238, 596.966 690, 594.245 690 C 592.463 690, 590.521 695.173, 578.010 733.250 M 744 729.862 C 744 730.907, 746.514 739.578, 749.586 749.131 C 758.057 775.469, 763.157 792.093, 771.018 819 C 774.955 832.475, 779.627 848.220, 781.401 853.990 L 784.625 864.480 791.563 866.251 C 795.378 867.225, 805.194 869.835, 813.376 872.051 C 821.559 874.267, 828.359 875.950, 828.488 875.790 C 828.617 875.631, 829.015 846.831, 829.372 811.791 L 830.021 748.083 826.261 747.133 C 824.192 746.610, 811.475 743.668, 798 740.595 C 777.210 735.854, 754.913 730.649, 746.250 728.516 C 744.512 728.088, 744 728.394, 744 729.862" stroke="none" fill="#ffffff" fill-rule="evenodd"/></svg>