<svg xmlns="http://www.w3.org/2000/svg" width="1088" height="960" viewBox="0 0 1088 960" version="1.1"><path d="M 526 24.897 C 526 25.441, 526.936 27.473, 528.081 29.412 C 530.134 32.893, 530.146 33.312, 529.002 61.719 C 526.767 117.253, 526.658 118.619, 524.202 121.941 C 522.991 123.579, 522 125.361, 522 125.901 C 522 126.793, 535.838 126.297, 536.912 125.367 C 537.138 125.170, 536.719 123.180, 535.981 120.942 C 534.869 117.573, 534.847 112.378, 535.855 90.687 C 537.485 55.602, 538.161 46, 539.003 46 C 539.392 46, 549.304 58.712, 561.028 74.250 C 590.864 113.789, 606.077 133, 607.551 133 C 608.992 133, 609.047 132.303, 612.045 76.706 C 614.006 40.345, 614.614 34.974, 616.938 33.538 C 617.522 33.177, 618 32.286, 618 31.557 C 618 30.210, 605.447 28.220, 604.283 29.383 C 603.976 29.691, 604.287 31.954, 604.975 34.412 C 605.968 37.957, 605.990 45.052, 605.081 68.691 C 603.867 100.286, 603.346 107, 602.109 107 C 600.829 107, 560.396 54.251, 545.387 33 L 539.383 24.500 532.692 24.204 C 528.750 24.030, 526 24.315, 526 24.897 M 447.068 35.750 C 445.337 42.181, 435.454 83.452, 430.006 107 C 427.143 119.375, 423.677 132.344, 422.304 135.820 C 420.930 139.296, 420.018 142.351, 420.276 142.610 C 420.782 143.115, 434.173 141.160, 434.852 140.481 C 435.077 140.256, 434.560 138.593, 433.702 136.785 C 432.313 133.858, 432.299 132.623, 433.575 125.499 C 435.560 114.413, 438.569 101.097, 439.241 100.426 C 439.799 99.868, 471.124 94, 473.546 94 C 475.257 94, 493 123.855, 493 126.734 C 493 129.266, 494.928 129.532, 504.750 128.352 C 510.443 127.668, 511.245 126.436, 507.941 123.447 C 506.809 122.422, 503.927 118.415, 501.537 114.542 C 488.507 93.427, 454.431 38.038, 452.755 35.250 C 450.187 30.975, 448.308 31.141, 447.068 35.750 M 659.605 41.640 C 660.042 45.585, 659.074 50.266, 654.465 66.500 C 651.342 77.500, 647.242 92.125, 645.353 99 C 638.915 122.439, 636.811 128.343, 633.836 131.318 C 632.276 132.878, 631.006 134.457, 631.013 134.827 C 631.020 135.197, 634.958 136.513, 639.763 137.751 C 644.568 138.988, 653.675 141.399, 660 143.107 C 678.432 148.085, 693.491 147.382, 706.090 140.954 C 712.901 137.480, 721.371 128.151, 725.489 119.590 C 736.179 97.364, 733.346 73.742, 718.344 60.031 C 709.346 51.808, 700.758 47.887, 678.500 41.839 C 656.698 35.915, 658.975 35.939, 659.605 41.640 M 670.472 53.750 C 669.601 56.913, 667.129 65.575, 664.978 73 C 659.794 90.899, 652.432 117.959, 650.619 125.780 C 649.198 131.910, 649.215 132.094, 651.332 133.461 C 653.860 135.093, 667.251 138.520, 674.563 139.406 C 685.620 140.745, 696.415 136.721, 705.009 128.055 C 714.852 118.130, 719.513 104.882, 718.769 88.942 C 718.418 81.428, 717.769 78.175, 715.731 73.724 C 712.527 66.726, 705.616 59.198, 699.180 55.694 C 694.566 53.183, 677.475 48.008, 673.778 48.003 C 672.531 48.001, 671.619 49.587, 670.472 53.750 M 445.071 73.033 C 442.710 83.526, 440.978 92.312, 441.224 92.557 C 441.470 92.803, 447.707 91.882, 455.085 90.511 C 462.463 89.141, 468.837 88.015, 469.250 88.010 C 469.663 88.004, 469.999 87.438, 469.997 86.750 C 469.993 85.257, 451.307 54.620, 450.160 54.227 C 449.722 54.077, 447.432 62.540, 445.071 73.033 M 311.443 76.437 C 305.589 78.084, 279.665 90.640, 279.161 92.071 C 278.974 92.601, 279.763 93.815, 280.913 94.768 C 282.064 95.720, 288.878 109.550, 296.055 125.500 C 314.500 166.487, 319 177.351, 319 180.895 C 319 182.971, 319.491 184, 320.481 184 C 322.717 184, 335 177.716, 335 176.573 C 335 176.024, 333.870 174.658, 332.488 173.538 C 329.842 171.391, 314.340 139.102, 313.303 133.575 C 312.985 131.884, 312.134 129.813, 311.411 128.974 C 309.918 127.242, 296.265 96.902, 295.365 93.319 C 294.838 91.219, 295.483 90.656, 301.566 87.897 C 315.789 81.448, 325.251 83.536, 330.352 94.249 C 335.394 104.835, 334.724 113.458, 328.274 120.993 C 324.817 125.032, 318.506 129, 315.540 129 C 312.589 129, 314.011 131.740, 317.250 132.296 C 319.038 132.603, 331.975 138.733, 346 145.917 C 360.025 153.101, 372.302 158.984, 373.283 158.989 C 375.935 159.005, 385.002 154.157, 384.985 152.733 C 384.977 152.055, 382.390 150.507, 379.235 149.294 C 371.297 146.240, 333 127.709, 333 126.921 C 333 126.568, 334.649 124.531, 336.665 122.393 C 349.110 109.198, 347.106 87.007, 332.708 78.569 C 327.184 75.332, 318.472 74.458, 311.443 76.437 M 811.667 94.667 C 811.300 95.033, 811 96.233, 811 97.333 C 811 99.675, 802.459 116.101, 782.982 151.218 C 769.622 175.307, 765.696 181, 762.444 181 C 761.650 181, 761 181.601, 761 182.336 C 761 183.504, 776.270 192, 778.368 192 C 778.803 192, 778.889 190.762, 778.560 189.250 C 777.843 185.960, 780.461 180.247, 794.491 154.489 C 817.156 112.875, 822.637 104, 825.674 104 C 828.804 104, 826.551 101.034, 820.850 97.650 C 814.695 93.997, 812.915 93.419, 811.667 94.667 M 210 132.634 C 210 133.533, 210.451 135.895, 211.001 137.884 C 211.552 139.873, 216.507 160.231, 222.013 183.124 C 230.511 218.462, 233.811 234.367, 233.969 240.750 C 234.018 242.748, 235.515 242.245, 241.400 238.250 C 247.233 234.290, 248.221 232.552, 245.102 231.737 C 244.058 231.464, 242.409 230.027, 241.437 228.545 C 239.735 225.947, 233.102 200.629, 233.034 196.467 C 233.009 194.971, 236.725 191.829, 247.130 184.551 C 254.901 179.115, 261.783 174.667, 262.422 174.667 C 264.006 174.667, 285.600 188.824, 290.250 192.911 C 292.313 194.724, 294 196.836, 294 197.604 C 294 199.846, 296.928 199.223, 300.856 196.145 C 302.860 194.574, 305.512 192.758, 306.750 192.110 C 309.721 190.552, 309.613 188.192, 306.536 187.420 C 305.181 187.080, 298.319 183.193, 291.286 178.782 C 251.284 153.693, 213.338 131, 211.387 131 C 210.624 131, 210 131.735, 210 132.634 M 851.105 138.583 C 834.909 142.938, 819.050 158.385, 814.005 174.718 C 808.058 193.974, 811.592 210.884, 824.471 224.795 C 834.546 235.677, 848.563 243.014, 859.225 242.986 C 866.183 242.968, 869 242.134, 869 240.091 C 869 238.781, 867.142 238.065, 860.473 236.806 C 843.530 233.608, 830.698 225.022, 825.189 213.199 C 822.826 208.126, 822.532 206.291, 822.520 196.500 C 822.508 186.646, 822.806 184.770, 825.388 178.500 C 831.347 164.024, 841.577 153.453, 855.021 147.880 C 863.344 144.430, 877.368 144.595, 885.253 148.235 C 888.417 149.696, 893.390 153.147, 896.304 155.903 C 903.494 162.703, 906.343 168.615, 906.831 177.750 C 907.088 182.555, 907.628 185, 908.432 185 C 909.914 185, 918 175.237, 918 173.449 C 918 172.744, 915.732 168.776, 912.959 164.630 C 904.134 151.436, 891.600 141.954, 878.458 138.531 C 871.172 136.633, 858.263 136.657, 851.105 138.583 M 221.376 151.750 C 221.658 152.713, 223.710 160.900, 225.937 169.943 C 228.164 178.987, 230.327 186.716, 230.743 187.119 C 231.686 188.030, 256.149 171.051, 255.472 169.955 C 254.730 168.754, 223.247 150, 221.972 150 C 221.363 150, 221.095 150.787, 221.376 151.750 M 143 193.834 C 127.981 203.593, 121.353 210.834, 115.196 224.209 C 103.318 250.010, 117.642 281.996, 146.328 293.728 C 153.925 296.834, 167.120 297.876, 175.119 296.001 C 182.631 294.239, 191.463 289.702, 197.623 284.439 C 207.786 275.757, 218.571 258.490, 219.659 249.160 L 220.202 244.500 209.790 235.705 C 199.664 227.151, 196 222.871, 196 219.596 C 196 218.718, 195.530 218, 194.957 218 C 193.646 218, 183.086 229.125, 183.036 230.558 C 183.016 231.139, 184.688 232.376, 186.750 233.305 C 188.813 234.235, 194.887 238.619, 200.250 243.049 C 211.528 252.364, 211.784 253.111, 206.979 262.726 C 198.221 280.253, 177.979 290.184, 160.264 285.646 C 151.415 283.379, 145.078 279.893, 138.153 273.481 C 130.899 266.765, 126.035 259.637, 123.010 251.286 C 119.802 242.433, 120.409 229.048, 124.395 220.735 C 130.428 208.152, 143.431 199.203, 157.099 198.225 C 161.060 197.942, 164 197.272, 164 196.653 C 164 195.256, 155.904 186.998, 154.542 187.006 C 153.969 187.009, 148.775 190.081, 143 193.834 M 944 198.356 C 944 200.096, 940.148 204.335, 929.250 214.587 C 921.138 222.219, 907.750 235.015, 899.500 243.022 C 879.494 262.439, 876.465 265, 873.497 265 C 871.944 265, 871 265.567, 871 266.500 C 871 267.325, 871.353 268, 871.785 268 C 872.217 268, 874.804 270.240, 877.535 272.978 C 880.266 275.716, 883.085 277.966, 883.801 277.978 C 884.517 277.990, 885.727 276.538, 886.490 274.750 C 887.254 272.962, 896.568 262.926, 907.189 252.448 C 941.912 218.190, 950.826 209.985, 954.013 209.347 C 955.656 209.019, 956.990 208.244, 956.978 207.625 C 956.946 205.936, 947.074 196, 945.429 196 C 944.595 196, 944 196.980, 944 198.356 M 981.611 238.412 C 980.660 242.201, 977.447 244.673, 945 266.577 C 913.800 287.639, 906.601 292, 903.033 292 C 900.564 292, 900.272 295.151, 902.566 297.055 C 903.427 297.770, 904.789 299.625, 905.592 301.177 C 907.103 304.100, 910 305.046, 910 302.616 C 910 299.701, 922.066 290.569, 955.500 268.179 C 967.679 260.023, 973.603 256.584, 973.820 257.544 C 973.996 258.324, 969.776 274.834, 964.444 294.231 C 950.833 343.740, 946 361.930, 946 363.651 C 946 364.523, 946.724 365.007, 947.750 364.820 C 948.712 364.644, 965.025 354.115, 984 341.422 C 1023.755 314.829, 1026.738 313, 1030.338 313 C 1032.306 313, 1033 312.494, 1033 311.059 C 1033 309.991, 1032.544 308.836, 1031.986 308.491 C 1031.428 308.146, 1030.069 306.095, 1028.965 303.932 C 1026.704 299.499, 1024 298.674, 1024 302.416 C 1024 304.018, 1022.737 305.822, 1020.250 307.772 C 1015.114 311.798, 965.362 345, 964.465 345 C 963.254 345, 964.796 337.792, 970.630 316.187 C 982.013 274.029, 984.073 266.259, 986.671 255.677 L 989.328 244.854 987.177 240.427 C 984.798 235.531, 982.540 234.714, 981.611 238.412 M 646.500 260.571 C 551.091 271.605, 513.364 278.049, 445.500 294.907 C 389.475 308.824, 346.784 323.065, 300.500 343.275 C 280.275 352.106, 240.665 372.180, 232.500 377.736 L 225.500 382.500 224.722 401.500 C 224.294 411.950, 224.104 442.550, 224.299 469.500 L 224.653 518.500 227.362 528.958 C 234.093 554.953, 250.083 578.266, 271.027 592.622 C 287.310 603.784, 299.073 609.041, 339 622.998 C 374.606 635.445, 390.088 643.658, 401.329 656.067 C 421.161 677.958, 421.859 712.139, 402.907 733.287 C 387.756 750.192, 356.904 756.087, 329.241 747.364 C 311.543 741.782, 296.233 729.522, 287.210 713.704 C 283.259 706.779, 279.223 693.136, 277.978 682.500 C 277.334 677, 276.617 672.192, 276.385 671.816 C 275.782 670.837, 224.686 672.078, 223.576 673.099 C 222.070 674.483, 224.710 698.544, 227.514 709 C 234.788 736.124, 254 762.975, 277 778.164 C 292.899 788.664, 303.669 793.079, 327.500 798.870 C 396.765 815.699, 468.460 833.286, 519.500 845.968 C 593.555 864.369, 659.855 880.642, 717.500 894.566 C 741.700 900.412, 783.753 910.760, 810.951 917.563 C 838.149 924.366, 860.501 929.832, 860.623 929.710 C 860.745 929.589, 860.958 856.654, 861.098 767.633 C 861.317 628.338, 861.153 605.668, 859.926 605.001 C 857.930 603.916, 810.827 591, 808.866 591 C 808.390 591, 808 612.375, 808 638.500 C 808 678.675, 807.783 686, 806.592 686 C 804.628 686, 709.979 662.246, 707.395 661.105 C 705.169 660.122, 701.758 650.185, 677.661 574.500 C 665.011 534.769, 662.503 526.164, 663.329 525.337 C 663.970 524.696, 782.359 554.373, 845.593 571.025 C 853.894 573.211, 861.046 575, 861.485 575 C 861.925 575, 862.044 565.783, 861.749 554.519 C 861.212 534.050, 861.210 534.034, 858.215 528.726 C 853.931 521.135, 812.787 456.307, 777.787 402 C 741.442 345.606, 712.883 301.476, 701.856 284.667 C 695.060 274.309, 688.479 263.847, 687.231 261.417 C 685.014 257.103, 684.852 257.003, 680.231 257.109 C 677.629 257.169, 662.450 258.727, 646.500 260.571 M 71 279.360 C 71 280.109, 69.875 282.379, 68.500 284.405 C 65.093 289.426, 65.274 290.800, 69.344 290.800 C 73.256 290.800, 74.783 291.530, 102.629 306.706 C 126.724 319.837, 132.211 323.637, 136.679 330.284 C 143.627 340.620, 141.652 354.517, 131.890 363.991 C 126.782 368.948, 119.586 371.443, 112.507 370.713 C 106.338 370.076, 101.835 367.887, 72.500 351.265 C 50.956 339.057, 45 334.953, 45 332.313 C 45 329.025, 41.865 331.579, 38.592 337.534 C 34.297 345.347, 34.112 347, 37.529 347 C 40.630 347, 46.850 350.106, 68.069 362.250 C 99.905 380.469, 103.466 382, 114.003 382 C 122.312 382, 128.287 379.555, 134.870 373.460 C 147.859 361.434, 151.469 343.520, 143.971 328.290 C 142.061 324.409, 139.072 320.471, 136.003 317.790 C 133.302 315.430, 119.721 307.200, 105.823 299.500 C 90.200 290.844, 79.157 284.069, 76.894 281.750 C 73.101 277.864, 71 277.012, 71 279.360 M 1016.347 358.095 C 1004.994 359.991, 991.710 366.980, 985.091 374.539 C 975.503 385.488, 971.581 395.929, 971.581 410.500 C 971.582 425.761, 975.973 436.542, 987.973 450.750 C 995.493 459.653, 995.836 459.691, 1012.272 453.437 C 1018.867 450.928, 1026.454 448.615, 1029.132 448.298 C 1031.809 447.981, 1034 447.318, 1034 446.826 C 1034 444.494, 1027.426 431, 1026.290 431 C 1025.580 431, 1025 431.605, 1025 432.345 C 1025 434.710, 1021.638 436.857, 1010.942 441.323 C 996.350 447.417, 995.762 447.512, 992.052 444.390 C 987.929 440.921, 981.389 427.118, 979.982 418.915 C 976.843 400.617, 986.807 383.579, 1006.201 374.081 C 1019.602 367.518, 1035.155 366.347, 1045.920 371.091 C 1056.333 375.679, 1065.297 386.530, 1068.525 398.455 C 1070.806 406.880, 1070.149 418.459, 1066.971 425.846 C 1065.737 428.714, 1065.006 431.339, 1065.346 431.680 C 1065.687 432.020, 1068.323 431.668, 1071.204 430.898 C 1074.979 429.889, 1076.795 428.800, 1077.706 426.999 C 1079.598 423.260, 1079.259 411.345, 1077.006 402.410 C 1068.988 370.607, 1045.251 353.266, 1016.347 358.095 M 17.698 387.250 C 7.054 400.417, 3.804 412.276, 7.471 424.568 C 10.595 435.038, 20.210 442, 31.547 442 C 40.214 442, 45.235 439.019, 58.699 425.878 C 65.205 419.528, 71.701 414.130, 74.199 412.996 C 83.362 408.837, 93.606 411.425, 98.749 419.197 C 101.142 422.813, 101.500 424.339, 101.500 430.927 C 101.500 437.162, 101.058 439.279, 99 442.911 C 95.799 448.558, 90.486 452.805, 83.795 455.065 C 76.063 457.677, 76.395 459.437, 85.110 462.033 L 92.343 464.187 95.639 460.343 C 97.452 458.230, 100.854 452.675, 103.200 448 C 107.227 439.972, 107.485 438.940, 107.839 429.415 C 108.184 420.159, 107.997 418.870, 105.567 413.733 C 100.848 403.759, 93.448 399, 82.654 399 C 72.118 399, 66.286 402.482, 51.337 417.695 C 41.421 427.786, 36.164 430.942, 29.210 430.978 C 15.497 431.048, 8.548 416.327, 15.608 402.160 C 18.294 396.769, 25.224 390.484, 29.727 389.354 C 33.112 388.504, 32.249 385.584, 28.491 385.173 C 26.846 384.993, 25.073 384.431, 24.550 383.923 C 22.775 382.198, 21.140 382.992, 17.698 387.250 M 322 446.021 C 313.829 447.715, 301.334 454.689, 294.556 461.339 C 283.963 471.732, 278.842 484.508, 278.712 500.869 C 278.511 526.210, 288.625 541.732, 315.500 557.331 C 328.457 564.852, 351.870 571.924, 427 591.012 C 479.166 604.265, 501.322 609.934, 521.273 615.134 C 532.148 617.969, 541.254 620.079, 541.509 619.824 C 541.764 619.569, 548.690 600.042, 556.900 576.430 C 565.110 552.819, 574.130 527.236, 576.944 519.581 C 579.759 511.925, 581.710 505.313, 581.281 504.888 C 580.851 504.463, 528.075 490.988, 464 474.943 C 354.278 447.468, 346.889 445.751, 337 445.429 C 331.225 445.242, 324.475 445.508, 322 446.021 M 604.688 592.509 C 597.641 613.673, 592.104 631.360, 592.384 631.812 C 593.140 633.036, 643.754 645.580, 644.584 644.749 C 644.976 644.358, 640.455 627.716, 634.537 607.768 C 628.619 587.821, 622.638 567.563, 621.247 562.750 C 619.855 557.938, 618.443 554.007, 618.108 554.015 C 617.774 554.023, 611.734 571.345, 604.688 592.509 M 463.265 656.139 C 463.562 657.437, 465.065 663, 466.604 668.500 C 469.202 677.783, 469.400 679.790, 469.374 696.500 C 469.351 711.576, 469.009 715.724, 467.270 722.031 C 462.416 739.640, 456.203 752.279, 446.283 764.728 C 443.359 768.397, 441.111 771.832, 441.287 772.361 C 441.729 773.686, 483.132 784.298, 483.974 783.302 C 484.346 782.861, 488.839 770.350, 493.958 755.500 C 499.076 740.650, 507.946 715.489, 513.668 699.586 C 519.616 683.056, 523.697 670.297, 523.196 669.796 C 522.715 669.315, 509.761 665.782, 494.411 661.945 C 479.060 658.108, 465.650 654.701, 464.612 654.374 C 463.042 653.878, 462.815 654.176, 463.265 656.139 M 556.476 738.750 C 546.173 769.962, 537.688 795.893, 537.621 796.373 C 537.432 797.740, 703.457 838.876, 704.590 837.743 C 705.410 836.923, 698.589 813.993, 683.992 768.500 C 677.462 748.150, 670.317 725.487, 668.114 718.137 C 665.910 710.788, 663.945 704.612, 663.747 704.414 C 663.549 704.216, 653.512 701.539, 641.443 698.466 C 629.375 695.393, 609.909 690.431, 598.186 687.439 C 586.463 684.448, 576.497 682, 576.040 682 C 575.583 682, 566.779 707.538, 556.476 738.750 M 724 721.689 C 724 722.618, 730.944 744.330, 739.432 769.939 C 747.920 795.547, 757.214 824.600, 760.085 834.500 C 762.957 844.400, 765.628 852.868, 766.021 853.318 C 766.820 854.232, 803.500 863.954, 806.258 863.982 C 807.918 863.999, 808.001 860.598, 807.758 802.250 L 807.500 740.500 799 738.380 C 794.325 737.213, 776.234 732.601, 758.798 728.130 C 741.362 723.658, 726.400 720, 725.548 720 C 724.697 720, 724 720.760, 724 721.689" stroke="none" fill="#ffffff" fill-rule="evenodd"/></svg>