<svg xmlns="http://www.w3.org/2000/svg" width="990" height="1008" viewBox="0 0 990 1008" version="1.1"><path d="M 693 20.050 C 690.397 20.923, 669.116 23.436, 651 25.010 C 645.225 25.512, 637.350 26.416, 633.500 27.020 C 629.650 27.624, 621.550 28.513, 615.500 28.995 C 599.937 30.237, 576.400 32.822, 570.500 33.937 C 567.750 34.457, 560.775 35.378, 555 35.984 C 549.225 36.590, 540.900 37.725, 536.500 38.507 C 532.100 39.288, 523.325 40.661, 517 41.556 C 510.675 42.452, 500.550 44.291, 494.500 45.643 C 483.945 48.001, 474.519 49.822, 454.048 53.454 C 448.849 54.377, 444.292 55.319, 443.921 55.549 C 442.968 56.138, 425.379 59.711, 406.500 63.151 C 400.450 64.253, 390.100 66.520, 383.500 68.189 C 370.602 71.449, 365.862 72.571, 350.824 75.921 C 345.502 77.107, 337.177 79.452, 332.324 81.133 C 324.632 83.797, 313.034 86.989, 305 88.653 C 303.625 88.938, 298.450 90.451, 293.500 92.015 C 288.550 93.580, 280.450 96.054, 275.500 97.513 C 270.550 98.973, 261.325 101.996, 255 104.231 C 248.675 106.467, 238.550 109.981, 232.500 112.040 C 207.084 120.692, 200.460 123.121, 180 131.297 C 157.905 140.125, 141.443 147.183, 127.618 153.754 C 106.242 163.913, 70.607 182.216, 63.424 186.725 C 58.983 189.514, 52.683 193.142, 49.424 194.788 C 38.825 200.143, 39.892 188.901, 39.974 294.323 C 40.021 355.068, 40.411 388.878, 41.109 392.690 C 43.065 403.383, 48.202 423.544, 51.563 433.721 C 54.545 442.751, 69.124 465.660, 79 476.836 C 83.808 482.276, 97.418 494.364, 105.726 500.573 C 111.401 504.814, 128.840 514.865, 139.198 519.864 C 152.065 526.074, 182.418 537.965, 194.083 541.366 C 198.712 542.716, 205.425 544.920, 209 546.265 C 242.900 559.014, 244.328 559.640, 266.215 571.369 C 283.339 580.545, 291.551 586.952, 298.906 596.873 C 313.410 616.437, 319.050 637.791, 316.081 661.894 C 314.734 672.830, 312.519 679.956, 306.494 692.736 C 300.235 706.012, 294.761 711.439, 280.115 718.882 C 266.231 725.937, 261.842 727.484, 248.027 730.189 C 237.170 732.314, 228.545 732.289, 217.500 730.100 C 214.750 729.555, 208.944 728.630, 204.598 728.044 C 190.064 726.086, 164.636 713.803, 149.825 701.586 C 138.308 692.086, 127.354 675.826, 121.809 660 C 118.831 651.498, 115.025 631.241, 115.012 623.821 C 114.993 613.259, 117.833 613.934, 74.666 614.238 L 37.500 614.500 37.658 617 C 38.922 636.995, 40.553 649.165, 43.593 661.283 C 50.586 689.156, 55.304 700.237, 69.314 721.699 C 77.367 734.036, 89.856 749.129, 94.273 751.863 C 96.048 752.961, 98.850 755.294, 100.500 757.046 C 102.150 758.798, 106.650 762.350, 110.500 764.939 C 114.350 767.528, 119.300 770.894, 121.500 772.420 C 127.167 776.352, 145.260 785.323, 156.747 789.898 C 169.177 794.848, 180.980 798.304, 193 800.513 C 198.225 801.473, 208.575 803.748, 216 805.569 C 223.425 807.391, 233.100 809.562, 237.500 810.394 C 241.900 811.227, 249.100 812.868, 253.500 814.042 C 261.864 816.272, 272.995 819.048, 294 824.142 C 300.875 825.809, 310.550 828.456, 315.500 830.024 C 320.450 831.592, 330.125 834.050, 337 835.485 C 343.875 836.921, 353.775 839.171, 359 840.485 C 364.225 841.799, 372.550 843.619, 377.500 844.529 C 384.897 845.889, 409.788 852.247, 436.500 859.600 C 444.102 861.692, 472.128 868.577, 484.500 871.391 C 490.550 872.767, 501.125 875.310, 508 877.044 C 545.727 886.554, 561.992 890.530, 575.500 893.542 C 583.750 895.382, 593.517 897.824, 597.205 898.970 C 600.892 900.115, 609.442 902.155, 616.205 903.502 C 622.967 904.849, 634.151 907.501, 641.058 909.395 C 652.511 912.537, 672.018 917.419, 695.500 923.021 C 700.450 924.202, 707.650 925.756, 711.500 926.475 C 726.404 929.257, 734.783 931.197, 742 933.539 C 746.125 934.878, 756.700 937.771, 765.500 939.968 C 774.300 942.166, 786.628 945.326, 792.895 946.992 C 799.162 948.658, 808.837 950.916, 814.395 952.010 C 819.953 953.104, 831.475 955.785, 840 957.967 C 875.702 967.106, 893.655 971.528, 913.500 976.073 C 925.050 978.718, 938.292 982.034, 942.926 983.441 C 947.561 984.849, 952.623 986, 954.176 986 L 957 986 957.225 757.750 C 957.349 632.212, 957.384 527.532, 957.303 525.128 C 957.222 522.723, 956.735 520.335, 956.222 519.822 C 955.160 518.760, 943.721 515.750, 920.500 510.421 C 911.700 508.402, 899.574 505.470, 893.553 503.905 C 887.532 502.340, 882.486 501.181, 882.339 501.328 C 882.079 501.587, 881.202 736.503, 881.067 841.867 C 881.004 891.253, 880.900 894.204, 879.250 893.713 C 878.288 893.427, 873.450 891.759, 868.500 890.006 C 859.417 886.789, 833.926 881, 828.843 881 C 819.790 881, 818.442 878.186, 802.503 826 C 799.396 815.825, 793.747 797.825, 789.951 786 C 786.155 774.175, 782.644 762.700, 782.150 760.500 C 781.655 758.300, 780.247 754.025, 779.022 751 C 776.617 745.064, 770.891 726.387, 762.466 697 C 759.548 686.825, 755.371 673.325, 753.182 667 C 750.993 660.675, 748.660 653.475, 747.996 651 C 747.333 648.525, 745.992 644.250, 745.016 641.500 C 740.497 628.767, 725.408 582.512, 719.897 564.500 C 713.500 543.593, 710.147 533.213, 705.198 519 C 703.570 514.325, 699.649 502.400, 696.483 492.500 C 693.318 482.600, 689.038 469.325, 686.973 463 C 680.983 444.658, 679.337 439.014, 677.493 430.500 C 676.539 426.100, 674.464 418.824, 672.880 414.330 C 671.296 409.837, 670 405.899, 670 405.580 C 670 404.420, 674.937 405.046, 681.310 407.014 C 687.839 409.031, 698.634 411.555, 715.500 415.010 C 720.450 416.024, 730.125 418.417, 737 420.329 C 743.875 422.240, 752.875 424.570, 757 425.505 C 761.125 426.440, 769.225 428.575, 775 430.248 C 780.775 431.921, 792.475 434.737, 801 436.505 C 816.296 439.678, 858.837 450.368, 870.500 453.970 C 873.800 454.989, 881 456.818, 886.500 458.034 C 892 459.250, 904.375 462.191, 914 464.568 C 923.625 466.945, 934.425 469.405, 938 470.033 C 941.575 470.661, 945.015 471.602, 945.644 472.122 C 946.273 472.643, 949.042 473.336, 951.797 473.662 L 956.805 474.256 957.528 466.540 C 957.926 462.296, 958.057 449.946, 957.818 439.095 L 957.385 419.365 952.543 410.932 C 949.879 406.295, 945.180 398.608, 942.100 393.852 C 939.020 389.096, 930.992 376.721, 924.260 366.352 C 917.528 355.983, 906.867 339.400, 900.570 329.500 C 894.272 319.600, 882.608 301.600, 874.651 289.500 C 866.693 277.400, 857.288 262.775, 853.751 257 C 845.560 243.625, 841.521 237.318, 830.949 221.386 C 826.246 214.299, 821.330 206.700, 820.025 204.500 C 818.719 202.300, 812.892 193.225, 807.076 184.334 C 801.259 175.442, 793.610 163.517, 790.078 157.834 C 786.546 152.150, 781.325 143.900, 778.476 139.500 C 773.967 132.536, 761.097 112.239, 753.876 100.704 C 752.569 98.616, 745.987 88.619, 739.250 78.489 C 732.513 68.360, 727 59.846, 727 59.569 C 727 59.293, 724.188 54.566, 720.750 49.065 C 717.313 43.564, 712.523 35.628, 710.107 31.429 C 702.983 19.049, 700.640 17.490, 693 20.050 M 183 290.706 C 179.589 291.298, 166.340 295.494, 161.779 297.426 C 155.206 300.211, 143.659 308.227, 137.986 313.944 C 134.953 317, 130.439 323.100, 127.955 327.500 C 120.544 340.625, 119.429 343.618, 118.029 354.142 C 117.417 358.739, 116.418 364.173, 115.809 366.218 C 115.056 368.743, 115.027 370.346, 115.716 371.218 C 116.274 371.923, 117.020 376.133, 117.374 380.573 C 118.203 390.979, 120.243 398.784, 124.410 407.500 C 128.873 416.835, 132.300 421.688, 140.034 429.624 C 148.184 437.988, 157.019 443.957, 173.500 452.236 C 189.181 460.113, 194.368 462.181, 217 469.581 C 260.686 483.865, 293.812 498.598, 321 515.836 C 331.975 522.794, 336.591 526.512, 345.677 535.709 C 365.358 555.631, 381.474 583.345, 388.297 609 C 391.331 620.406, 391.356 620.707, 391.340 646 C 391.327 667.757, 390.998 673.408, 389.098 684.500 C 387.873 691.650, 386.061 699.976, 385.071 703.003 C 380.676 716.435, 368.963 735.620, 355.446 751.526 C 351.901 755.698, 349 759.771, 349 760.577 C 349 762.667, 351.859 763.657, 366.034 766.473 C 372.927 767.842, 384.627 770.825, 392.034 773.102 C 399.440 775.378, 407.520 777.299, 409.990 777.370 L 414.480 777.500 422.612 753.500 C 427.084 740.300, 432.859 723.650, 435.445 716.500 C 443.602 693.943, 452.021 670.037, 457.456 654 C 466.455 627.445, 470.877 614.907, 475.444 603 C 477.870 596.675, 481.866 585.425, 484.324 578 C 486.782 570.575, 491.366 557.525, 494.509 549 C 497.653 540.475, 502.844 525.850, 506.044 516.500 C 517.872 481.946, 521.997 470.108, 527.995 453.500 C 531.372 444.150, 535.495 432.450, 537.157 427.500 C 538.820 422.550, 541.537 414.675, 543.196 410 C 549.296 392.810, 554.160 376.860, 553.682 375.613 C 553.198 374.352, 532.348 368.406, 518.345 365.534 C 514.409 364.727, 502.314 361.783, 491.467 358.992 C 480.620 356.200, 468.990 353.300, 465.623 352.548 C 462.255 351.795, 446 347.709, 429.500 343.466 C 401.950 336.383, 385.499 332.480, 372.500 329.942 C 369.750 329.405, 360.300 326.965, 351.500 324.520 C 323.884 316.848, 313.147 314.106, 290.500 308.944 C 278.400 306.186, 264.225 302.599, 259 300.973 C 253.775 299.348, 242.975 296.623, 235 294.918 C 227.025 293.213, 218.700 291.428, 216.500 290.952 C 212.473 290.081, 187.651 289.899, 183 290.706 M 605.662 445.750 C 604.663 447.392, 599.068 462.773, 597.932 467 C 595.529 475.939, 583.092 513.715, 579.495 523 C 577.471 528.225, 574.244 537.675, 572.325 544 C 570.405 550.325, 568.603 556.253, 568.320 557.174 C 567.524 559.767, 575.987 563.254, 589.730 565.996 C 603.625 568.768, 613.792 571.127, 625.500 574.296 C 642.446 578.883, 648 579.734, 648 577.744 C 648 575.961, 643.481 560.485, 637.564 542 C 630.242 519.128, 624.946 501.293, 622.471 491.179 C 621.169 485.855, 617.869 474.975, 615.137 467 C 612.405 459.025, 609.857 450.813, 609.474 448.750 C 608.844 445.356, 606.854 443.790, 605.662 445.750 M 542.480 630.250 C 542.229 630.938, 540.455 637.575, 538.538 645 C 536.620 652.425, 531.640 668.400, 527.471 680.500 C 518.220 707.351, 506.234 743.169, 502.207 756 C 500.567 761.225, 496.897 771.937, 494.050 779.805 C 491.204 787.673, 489.020 794.873, 489.198 795.805 C 489.544 797.618, 489.905 797.721, 507.500 801.026 C 513.550 802.163, 524.125 804.599, 531 806.441 C 537.875 808.282, 548.225 810.791, 554 812.017 C 559.775 813.243, 570.800 815.947, 578.500 818.027 C 586.200 820.106, 598.031 822.999, 604.791 824.454 C 611.551 825.910, 621.367 828.420, 626.603 830.032 C 631.839 831.644, 640.933 833.908, 646.812 835.064 C 652.690 836.221, 663.125 838.699, 670 840.572 C 676.875 842.445, 685.875 844.713, 690 845.612 C 694.125 846.511, 698.400 847.606, 699.500 848.045 C 700.600 848.485, 703.525 849.126, 706 849.470 C 708.475 849.814, 715.601 851.686, 721.835 853.630 C 728.069 855.574, 733.447 856.886, 733.787 856.546 C 734.127 856.206, 733.579 853.807, 732.571 851.214 C 731.562 848.621, 728.603 839.300, 725.996 830.500 C 715.337 794.523, 712.730 785.984, 709.049 775 C 702.693 756.032, 684.215 698.900, 682.550 693.068 C 681.698 690.081, 681 686.369, 681 684.818 C 681 683.268, 680.608 682, 680.128 682 C 679.648 682, 678.960 680.152, 678.599 677.892 C 677.600 671.648, 674.198 662.652, 672.305 661.250 C 671.377 660.563, 669.241 660.001, 667.559 660.002 C 662.293 660.006, 606.345 645.964, 553.705 631.429 C 543.549 628.624, 543.092 628.576, 542.480 630.250" stroke="none" fill="#f28397" fill-rule="evenodd"/></svg>