<svg xmlns="http://www.w3.org/2000/svg" width="1024" height="1024" viewBox="0 0 1024 1024" version="1.1"><path d="M 689.500 13.088 C 552.243 27.311, 477.035 39.901, 373.500 65.986 C 267.684 92.646, 179.364 125.044, 95.068 168.122 C 71.865 179.979, 46.407 194.600, 44.078 197.406 C 43.148 198.526, 42.966 220.494, 43.283 293.180 C 43.728 395.392, 43.890 398.709, 49.446 419.582 C 59.502 457.366, 84.058 491.264, 117.537 513.582 C 140.115 528.632, 163.143 538.757, 212.500 555.334 C 242.793 565.508, 252.668 569.254, 263.500 574.681 C 297.624 591.780, 313.189 605.065, 323.040 625.500 C 332.722 645.582, 335.007 668.450, 329.499 690.129 C 327.247 698.992, 320.068 713.356, 314.320 720.500 C 306.386 730.361, 290.735 739.521, 272 745.270 C 261.623 748.454, 231.973 748.909, 217.335 746.108 C 191.692 741.202, 172.955 731.759, 157.270 715.839 C 137.332 695.600, 128.467 675.310, 124.925 641.807 C 124.245 635.375, 123.365 629.591, 122.970 628.952 C 122.427 628.072, 113.687 628.060, 86.876 628.900 C 67.419 629.510, 49.524 630.007, 47.110 630.005 L 42.720 630 43.271 646.250 C 44.164 672.569, 49.016 692.114, 60.463 715.500 C 69.208 733.365, 76.628 745.363, 85.541 756.050 C 104.072 778.267, 132.843 798.373, 162.057 809.522 C 175.196 814.536, 187.742 817.872, 244.500 831.445 C 273.100 838.285, 317.650 849.097, 343.500 855.472 C 369.350 861.847, 402.650 870.022, 417.500 873.639 C 432.350 877.256, 475.100 887.778, 512.500 897.022 C 679.991 938.421, 712.134 946.332, 737.500 952.397 C 793.823 965.865, 940.128 1001.854, 971.705 1010.008 C 984.467 1013.304, 996.055 1016, 997.455 1016 L 1000 1016 1000 773.035 C 1000 542.655, 999.909 530.023, 998.250 529.155 C 997.288 528.652, 983.675 524.780, 968 520.551 C 952.325 516.322, 936.221 511.964, 932.212 510.868 C 928.204 509.771, 923.704 509.015, 922.212 509.187 L 919.500 509.500 919.285 708 C 919.166 817.175, 919.053 908.862, 919.035 911.750 C 919.003 916.535, 918.801 916.995, 916.750 916.941 C 915.513 916.908, 901.456 913.632, 885.514 909.660 L 856.528 902.439 851.723 886.469 C 847.038 870.903, 834.104 830.297, 813.829 767.500 C 808.324 750.450, 797.316 715.350, 789.368 689.500 C 781.419 663.650, 770.016 627.650, 764.027 609.500 C 758.038 591.350, 746.587 555.575, 738.581 530 C 730.575 504.425, 719.960 470.675, 714.994 455 C 704.369 421.468, 701.454 411.212, 702.308 410.359 C 702.652 410.015, 718.136 413.577, 736.717 418.274 C 881.512 454.877, 967.303 476.766, 982.500 480.983 C 988.550 482.662, 994.981 484.314, 996.791 484.655 L 1000.082 485.275 999.791 453.887 L 999.500 422.500 983.573 397 C 974.814 382.975, 963.390 364.975, 958.187 357 C 952.984 349.025, 941.517 331.025, 932.705 317 C 923.892 302.975, 914.125 287.675, 911 283 C 907.875 278.325, 897.083 261.675, 887.018 246 C 876.953 230.325, 864.358 210.975, 859.029 203 C 853.700 195.025, 844.807 181.300, 839.266 172.500 C 830.462 158.517, 793.455 100.989, 770.435 65.500 C 747.619 30.326, 739.149 17.088, 737.006 13.250 C 734.095 8.040, 738.083 8.053, 689.500 13.088 M 198.028 291.072 C 162.311 297.440, 137.198 319.487, 127.816 352.711 C 124.722 363.669, 124.748 384.884, 127.870 396.500 C 133.861 418.789, 146.926 436.085, 168.500 450.286 C 184.210 460.627, 195.463 465.531, 230.845 477.456 C 270.429 490.798, 281.814 495.285, 303.995 506.285 C 333.607 520.970, 350.568 532.422, 366.500 548.488 C 391.707 573.907, 405.702 603.288, 411.565 643.096 C 414.918 665.856, 412.322 695.464, 405.044 717.500 C 397.716 739.686, 390.405 753.224, 376.225 770.864 C 371.643 776.564, 368.030 781.323, 368.197 781.440 C 368.764 781.839, 431.495 797.026, 432.521 797.013 C 433.083 797.006, 438.216 783.612, 443.928 767.250 C 457.462 728.484, 468.713 696.574, 474.340 681 C 476.823 674.125, 482.288 658.600, 486.484 646.500 C 493.974 624.901, 506.046 590.584, 522.542 544 C 536.273 505.224, 542.760 486.732, 551.484 461.500 C 564.709 423.246, 573.587 398.118, 576.913 389.523 C 578.611 385.135, 580 381.256, 580 380.902 C 580 379.988, 563.142 375.259, 528.500 366.457 C 457.522 348.421, 250.349 296.674, 238 293.896 C 223.157 290.557, 207.227 289.432, 198.028 291.072 M 634 452.471 C 634 454.219, 617.125 506.247, 607.556 534 C 601.203 552.425, 596.004 568.054, 596.003 568.731 C 596.001 569.408, 597.237 570.245, 598.750 570.591 C 600.263 570.937, 618.150 575.628, 638.500 581.014 C 658.850 586.401, 675.681 590.633, 675.901 590.420 C 676.122 590.206, 673.548 581.136, 670.182 570.265 C 664.630 552.337, 656.381 524.783, 647.349 494 C 645.494 487.675, 642.114 475.637, 639.839 467.250 C 637.564 458.863, 635.320 452, 634.851 452 C 634.383 452, 634 452.212, 634 452.471 M 569.120 649.180 C 568.439 651.556, 555.758 689.962, 540.941 734.526 C 526.123 779.090, 514 816.011, 514 816.573 C 514 817.134, 520.188 819.083, 527.750 820.902 C 559.278 828.489, 632.281 846.490, 656 852.527 C 670.025 856.097, 691.850 861.489, 704.500 864.511 C 717.150 867.532, 735.810 872.006, 745.966 874.453 C 756.122 876.899, 764.628 878.705, 764.868 878.466 C 765.107 878.226, 762.282 868.236, 758.589 856.265 C 746.338 816.556, 727.936 757.836, 719.960 733 C 715.633 719.525, 710.259 702.204, 708.020 694.510 C 705.780 686.815, 703.397 679.998, 702.724 679.361 C 701.555 678.255, 676.836 671.753, 606.500 654.053 C 588.900 649.624, 573.568 645.744, 572.429 645.430 C 570.678 644.948, 570.167 645.527, 569.120 649.180" stroke="none" fill="#ffffff" fill-rule="evenodd"/><path d="M 689.500 13.088 C 552.243 27.311, 477.035 39.901, 373.500 65.986 C 267.684 92.646, 179.364 125.044, 95.068 168.122 C 71.899 179.962, 46.408 194.599, 44.087 197.396 C 43.168 198.503, 42.980 220.852, 43.282 293.170 C 43.709 395.444, 43.863 398.606, 49.446 419.582 C 59.502 457.366, 84.058 491.264, 117.537 513.582 C 140.115 528.632, 163.143 538.757, 212.500 555.334 C 242.793 565.508, 252.668 569.254, 263.500 574.681 C 297.624 591.780, 313.189 605.065, 323.040 625.500 C 332.722 645.582, 335.007 668.450, 329.499 690.129 C 327.247 698.992, 320.068 713.356, 314.320 720.500 C 306.386 730.361, 290.735 739.521, 272 745.270 C 261.623 748.454, 231.973 748.909, 217.335 746.108 C 191.692 741.202, 172.955 731.759, 157.270 715.839 C 137.366 695.634, 128.502 675.381, 124.954 642 C 124.282 635.675, 123.386 629.825, 122.964 629 C 122.308 627.716, 119.912 627.601, 106.349 628.201 C 97.632 628.587, 79.751 629.202, 66.613 629.567 L 42.727 630.232 43.274 646.366 C 44.164 672.561, 49.035 692.153, 60.463 715.500 C 69.208 733.365, 76.628 745.363, 85.541 756.050 C 104.072 778.267, 132.843 798.373, 162.057 809.522 C 175.196 814.536, 187.742 817.872, 244.500 831.445 C 273.100 838.285, 317.650 849.097, 343.500 855.472 C 369.350 861.847, 402.650 870.022, 417.500 873.639 C 432.350 877.256, 475.100 887.778, 512.500 897.022 C 679.991 938.421, 712.134 946.332, 737.500 952.397 C 793.823 965.865, 940.128 1001.854, 971.705 1010.008 C 984.467 1013.304, 996.055 1016, 997.455 1016 L 1000 1016 1000 773.035 C 1000 542.655, 999.909 530.023, 998.250 529.155 C 997.288 528.652, 983.675 524.780, 968 520.551 C 952.325 516.322, 936.221 511.964, 932.212 510.868 C 928.204 509.771, 923.704 509.015, 922.212 509.187 L 919.500 509.500 919.285 708 C 919.166 817.175, 919.053 908.862, 919.035 911.750 C 919.003 916.535, 918.801 916.995, 916.750 916.941 C 915.513 916.908, 901.456 913.632, 885.514 909.660 L 856.528 902.439 851.723 886.469 C 847.038 870.903, 834.104 830.297, 813.829 767.500 C 808.324 750.450, 797.316 715.350, 789.368 689.500 C 781.419 663.650, 770.016 627.650, 764.027 609.500 C 758.038 591.350, 746.587 555.575, 738.581 530 C 730.575 504.425, 719.960 470.675, 714.994 455 C 704.369 421.468, 701.454 411.212, 702.308 410.359 C 702.652 410.015, 718.136 413.577, 736.717 418.274 C 881.512 454.877, 967.303 476.766, 982.500 480.983 C 988.550 482.662, 994.981 484.314, 996.791 484.655 L 1000.082 485.275 999.791 453.887 L 999.500 422.500 983.573 397 C 974.814 382.975, 963.390 364.975, 958.187 357 C 952.984 349.025, 941.517 331.025, 932.705 317 C 923.892 302.975, 914.125 287.675, 911 283 C 907.875 278.325, 897.083 261.675, 887.018 246 C 876.953 230.325, 864.358 210.975, 859.029 203 C 853.700 195.025, 844.807 181.300, 839.266 172.500 C 830.462 158.517, 793.455 100.989, 770.435 65.500 C 747.619 30.326, 739.149 17.088, 737.006 13.250 C 734.095 8.040, 738.083 8.053, 689.500 13.088 M 198.028 291.072 C 162.311 297.440, 137.198 319.487, 127.816 352.711 C 124.722 363.669, 124.748 384.884, 127.870 396.500 C 133.861 418.789, 146.926 436.085, 168.500 450.286 C 184.210 460.627, 195.463 465.531, 230.845 477.456 C 270.429 490.798, 281.814 495.285, 303.995 506.285 C 333.607 520.970, 350.568 532.422, 366.500 548.488 C 391.707 573.907, 405.702 603.288, 411.565 643.096 C 414.918 665.856, 412.322 695.464, 405.044 717.500 C 397.826 739.354, 390.550 752.931, 376.821 770.164 C 372.519 775.563, 369 780.364, 369 780.831 C 369 781.567, 429.769 797.048, 432.521 797.013 C 433.083 797.006, 438.216 783.612, 443.928 767.250 C 457.462 728.484, 468.713 696.574, 474.340 681 C 476.823 674.125, 482.288 658.600, 486.484 646.500 C 493.974 624.901, 506.046 590.584, 522.542 544 C 536.273 505.224, 542.760 486.732, 551.484 461.500 C 564.709 423.246, 573.587 398.118, 576.913 389.523 C 578.611 385.135, 580 381.256, 580 380.902 C 580 379.988, 563.142 375.259, 528.500 366.457 C 457.522 348.421, 250.349 296.674, 238 293.896 C 223.157 290.557, 207.227 289.432, 198.028 291.072 M 628.585 470.242 C 625.881 479.184, 617.444 504.764, 609.835 527.087 C 602.226 549.409, 596 568.188, 596 568.818 C 596 569.447, 597.237 570.246, 598.750 570.594 C 600.263 570.942, 617.498 575.451, 637.052 580.613 C 656.606 585.776, 673.368 590, 674.302 590 C 676.452 590, 676.433 589.568, 673.961 582.407 C 672.840 579.158, 668.977 566.600, 665.377 554.500 C 661.778 542.400, 656.786 525.750, 654.285 517.500 C 651.784 509.250, 646.713 491.700, 643.016 478.500 C 638.616 462.788, 635.812 454.411, 634.897 454.242 C 633.901 454.058, 632.091 458.645, 628.585 470.242 M 569.120 649.180 C 568.439 651.556, 555.758 689.962, 540.941 734.526 C 526.123 779.090, 514 816.011, 514 816.573 C 514 817.134, 520.188 819.083, 527.750 820.902 C 559.220 828.475, 632.268 846.487, 656 852.526 C 670.025 856.095, 691.625 861.434, 704 864.391 C 716.375 867.348, 734.176 871.619, 743.557 873.883 C 759.641 877.765, 765 878.668, 765 877.495 C 765 876.378, 731.784 769.817, 719.960 733 C 715.633 719.525, 710.259 702.204, 708.020 694.510 C 705.780 686.815, 703.397 679.998, 702.724 679.361 C 701.555 678.255, 676.836 671.753, 606.500 654.053 C 588.900 649.624, 573.568 645.744, 572.429 645.430 C 570.678 644.948, 570.167 645.527, 569.120 649.180" stroke="none" fill="#ffffff" fill-rule="evenodd"/></svg>